<svg width="51" height="37" viewBox="0 0 51 37" fill="none" xmlns="http://www.w3.org/2000/svg">
<path d="M16.7149 29.1782C15.8793 29.1782 15.0436 29.8885 15.0436 30.8495C15.0436 31.6851 15.7539 32.5207 16.7149 32.5207C17.5505 32.5207 18.3861 31.8105 18.3861 30.8495C18.3861 30.0139 17.6759 29.1782 16.7149 29.1782Z" stroke="#F7F8FF" stroke-width="1.89583" stroke-miterlimit="10" stroke-linecap="round" stroke-linejoin="round"/>
<path d="M6.26953 14.4292V20.6964" stroke="#F7F8FF" stroke-width="1.89583" stroke-miterlimit="10" stroke-linecap="round" stroke-linejoin="round"/>
<path d="M36.77 20.8218V6.19824H14.7094" stroke="#F7F8FF" stroke-width="1.89583" stroke-miterlimit="10" stroke-linecap="round" stroke-linejoin="round"/>
<path d="M37.3967 23.7466V30.0138" stroke="#F7F8FF" stroke-width="1.89583" stroke-miterlimit="10" stroke-linecap="round" stroke-linejoin="round"/>
<path d="M34.6809 27.0889H23.3999" stroke="#F7F8FF" stroke-width="1.89583" stroke-miterlimit="10" stroke-linecap="round" stroke-linejoin="round"/>
<path d="M10.8655 26.6709H2.50919" stroke="#F7F8FF" stroke-width="1.89583" stroke-miterlimit="10" stroke-linecap="round" stroke-linejoin="round"/>
<path d="M4.59827 23.3286H15.8793" stroke="#F7F8FF" stroke-width="1.89583" stroke-miterlimit="10" stroke-linecap="round" stroke-linejoin="round"/>
<path d="M6.68734 26.7127V30.0134H50.14C50.14 30.0134 50.14 24.164 50.14 22.0332C50.14 19.9023 48.3434 18.7324 45.377 18.7324C42.4105 18.7324 37.1878 18.7324 37.1878 18.7324" stroke="#F7F8FF" stroke-width="1.89583" stroke-miterlimit="10" stroke-linecap="round" stroke-linejoin="round"/>
<path d="M37.1878 12.4656H46.3797C46.3797 12.4656 46.3797 9.12305 43.9982 9.12305C41.6584 9.12305 37.1878 9.12305 37.1878 9.12305" stroke="#F7F8FF" stroke-width="1.89583" stroke-miterlimit="10" stroke-linecap="round" stroke-linejoin="round"/>
<path d="M50.1401 22.4932H46.7975C46.7975 22.4932 46.5469 25.8357 50.1401 25.8357" stroke="#F7F8FF" stroke-width="1.89583" stroke-miterlimit="10" stroke-linecap="round" stroke-linejoin="round"/>
<path d="M45.1263 12.4653L47.2153 18.7326" stroke="#F7F8FF" stroke-width="1.89583" stroke-miterlimit="10" stroke-linecap="round" stroke-linejoin="round"/>
<path d="M43.2461 35.445C45.6694 35.445 47.6332 33.4813 47.6332 31.0579C47.6332 29.2196 46.5051 27.6319 44.8756 26.9634C44.3742 26.7545 43.831 26.6709 43.2461 26.6709C40.8228 26.6709 38.8591 28.6346 38.8591 31.0579C38.8591 33.4813 40.8228 35.445 43.2461 35.445Z" fill="white" stroke="#F7F8FF" stroke-width="1.89583" stroke-miterlimit="10" stroke-linecap="round" stroke-linejoin="round"/>
<path d="M16.506 35.445C18.9289 35.445 20.893 33.4809 20.893 31.058C20.893 28.635 18.9289 26.6709 16.506 26.6709C14.0831 26.6709 12.1189 28.635 12.1189 31.058C12.1189 33.4809 14.0831 35.445 16.506 35.445Z" fill="white" stroke="#F7F8FF" stroke-width="1.89583" stroke-miterlimit="10" stroke-linecap="round" stroke-linejoin="round"/>
<path d="M43.0372 32.5207C43.9602 32.5207 44.7085 31.7725 44.7085 30.8495C44.7085 29.9265 43.9602 29.1782 43.0372 29.1782C42.1142 29.1782 41.3659 29.9265 41.3659 30.8495C41.3659 31.7725 42.1142 32.5207 43.0372 32.5207Z" fill="#F7F8FF"/>
<path d="M16.7149 29.1782C15.8793 29.1782 15.0436 29.8885 15.0436 30.8495C15.0436 31.6851 15.7539 32.5207 16.7149 32.5207C17.5505 32.5207 18.3861 31.8105 18.3861 30.8495C18.2608 30.0139 17.5505 29.1782 16.7149 29.1782Z" fill="#F7F8FF"/>
<path d="M6.47843 12.4653C9.82434 12.4653 12.5367 9.75286 12.5367 6.40694C12.5367 3.06103 9.82434 0.348633 6.47843 0.348633C3.13252 0.348633 0.420119 3.06103 0.420119 6.40694C0.420119 9.75286 3.13252 12.4653 6.47843 12.4653Z" fill="#E63976"/>
<path d="M3.76263 6.86613L5.43389 8.70451L9.19422 4.52637" stroke="#FAF7F5" stroke-width="1.89583" stroke-linecap="round" stroke-linejoin="round"/>
</svg>
