<svg width="50" height="37" viewBox="0 0 50 37" fill="none" xmlns="http://www.w3.org/2000/svg">
<path d="M13.6329 7.07597V8.56678C13.6329 9.59888 14.4739 10.4016 15.506 10.4016H18.5641L18.6405 10.4781C18.6405 10.4781 20.3989 12.16 20.5136 12.16L20.6283 10.4016H26.6297C27.6618 10.4016 28.5028 9.56066 28.5028 8.56678V2.56531C28.541 1.57144 27.7001 0.730469 26.668 0.730469H15.7736C14.0916 0.730469 13.6329 2.33596 13.6329 3.44451C13.6329 4.55306 13.6329 7.22888 13.6329 7.07597Z" fill="#E63976"/>
<path d="M19.3668 3.78864C19.5962 3.06235 20.246 2.60364 20.9723 2.64187C21.8515 2.71832 22.5013 3.55929 22.4249 4.51494C22.3867 5.24123 21.4692 5.77639 21.1252 6.00575C20.7047 6.27333 20.7812 6.77027 20.7812 6.84672" stroke="white" stroke-width="1.89583" stroke-linecap="round" stroke-linejoin="round"/>
<path d="M21.2781 8.60527C21.2399 8.91107 20.9723 9.14043 20.6665 9.14043C20.3607 9.1022 20.1313 8.83462 20.1313 8.52881C20.1696 8.22301 20.4372 7.99365 20.743 7.99365C21.0488 8.03188 21.3164 8.29946 21.2781 8.60527Z" fill="white"/>
<path d="M30.8346 6.08203H42.0348C44.099 6.08203 45.7427 7.72575 45.7427 9.71349V27.4885" stroke="#F7F8FF" stroke-width="1.89583" stroke-miterlimit="10" stroke-linecap="round" stroke-linejoin="round"/>
<path d="M4.84097 27.4885V9.71349C4.84097 7.68752 6.48469 6.08203 8.51066 6.08203H11.3394" stroke="#F7F8FF" stroke-width="1.89583" stroke-miterlimit="10" stroke-linecap="round" stroke-linejoin="round"/>
<path d="M1.01837 29.7822H49.183C49.183 29.7822 49.7564 35.5161 44.2137 35.5161H6.79049C1.93579 35.5161 1.01837 29.7822 1.01837 29.7822Z" stroke="#F7F8FF" stroke-width="1.89583" stroke-miterlimit="10" stroke-linecap="round" stroke-linejoin="round"/>
<path d="M22.0426 32.2671H29.3056" stroke="#F7F8FF" stroke-width="1.89583" stroke-miterlimit="10" stroke-linecap="round" stroke-linejoin="round"/>
<path d="M11.7599 15.4478H19.3668" stroke="#F7F8FF" stroke-width="1.89583" stroke-miterlimit="10" stroke-linecap="round" stroke-linejoin="round"/>
<path d="M11.7216 18.123H24.7184" stroke="#F7F8FF" stroke-width="1.89583" stroke-miterlimit="10" stroke-linecap="round" stroke-linejoin="round"/>
<path d="M11.7216 20.8374H24.7184" stroke="#F7F8FF" stroke-width="1.89583" stroke-miterlimit="10" stroke-linecap="round" stroke-linejoin="round"/>
</svg>
