<svg width="31" height="37" viewBox="0 0 31 37" fill="none" xmlns="http://www.w3.org/2000/svg">
<path d="M1.76649 35.2684V30.3844C1.76649 30.3844 0.650146 21.035 0.650146 20.0582C0.685032 17.4069 6.54584 10.4995 6.54584 10.4995" stroke="#F7F8FF" stroke-width="1.89583" stroke-miterlimit="10" stroke-linecap="round" stroke-linejoin="round"/>
<path d="M16.593 30.3843C16.593 30.6983 16.3488 30.9425 16.0348 30.9425C15.7208 30.9425 15.4766 30.6983 15.4766 30.3843C15.4766 30.0704 15.7208 29.8262 16.0348 29.8262C16.3488 29.8262 16.593 30.0704 16.593 30.3843Z" stroke="#F7F8FF" stroke-width="1.89583" stroke-miterlimit="10" stroke-linecap="round" stroke-linejoin="round"/>
<path d="M25.0702 26.1982V29.8613C25.0702 31.466 23.7445 32.7917 22.1398 32.7917H10.2786" stroke="#F7F8FF" stroke-width="1.89583" stroke-miterlimit="10" stroke-linecap="round" stroke-linejoin="round"/>
<path d="M7.34821 22.2561V3.8015C7.34821 2.19675 8.67387 0.871094 10.2786 0.871094H22.1398C23.7445 0.871094 25.0702 2.19675 25.0702 3.8015V13.2555" stroke="#F7F8FF" stroke-width="1.89583" stroke-miterlimit="10" stroke-linecap="round" stroke-linejoin="round"/>
<path d="M7.34821 4.95264H25.1051" stroke="#F7F8FF" stroke-width="1.89583" stroke-miterlimit="10" stroke-linecap="round" stroke-linejoin="round"/>
<path d="M9.37158 28.0122H25.1051" stroke="#F7F8FF" stroke-width="1.89583" stroke-miterlimit="10" stroke-linecap="round" stroke-linejoin="round"/>
<path d="M10.7321 15.2788H11.4647C11.4647 15.2788 12.2671 18.9418 12.3718 19.2907C12.5113 19.5698 12.8253 20.2675 13.837 20.2675H18.8256C19.4536 20.2675 19.9071 19.6744 20.0467 19.0814C20.1862 18.4534 20.8839 15.3137 20.8839 15.3137H21.8258" stroke="#F7F8FF" stroke-width="1.89583" stroke-miterlimit="10" stroke-linecap="round" stroke-linejoin="round"/>
<path d="M14.2207 15.2788H18.0233" stroke="#F7F8FF" stroke-width="1.89583" stroke-miterlimit="10" stroke-linecap="round" stroke-linejoin="round"/>
<path d="M13.0695 15.7674V12.7672C13.0695 12.0346 14.0463 10.3252 16.2441 10.3252C18.4419 10.3252 19.2094 11.9997 19.2094 13.0463V15.7674" stroke="#F7F8FF" stroke-width="1.89583" stroke-miterlimit="10" stroke-linecap="round" stroke-linejoin="round"/>
<path d="M18.4767 17.1279V18.4885" stroke="#F7F8FF" stroke-width="1.26389" stroke-miterlimit="10" stroke-linecap="round" stroke-linejoin="round"/>
<path d="M16.9767 17.1279V18.4885" stroke="#F7F8FF" stroke-width="1.26389" stroke-miterlimit="10" stroke-linecap="round" stroke-linejoin="round"/>
<path d="M15.4417 17.1279V18.4885" stroke="#F7F8FF" stroke-width="1.26389" stroke-miterlimit="10" stroke-linecap="round" stroke-linejoin="round"/>
<path d="M13.9417 17.1279V18.4885" stroke="#F7F8FF" stroke-width="1.26389" stroke-miterlimit="10" stroke-linecap="round" stroke-linejoin="round"/>
<path d="M8.70875 35.4429C8.70875 35.4429 8.15058 30.1402 8.56921 29.6518C8.98784 29.1634 11.674 22.3258 12.0578 21.4886C12.4415 20.6862 12.5811 19.4303 11.8834 18.9419C11.1856 18.4535 10.174 18.5233 9.37158 19.4303C8.56921 20.3373 6.58072 23.6864 6.58072 23.6864" stroke="#F7F8FF" stroke-width="1.89583" stroke-miterlimit="10" stroke-linecap="round" stroke-linejoin="round"/>
<path d="M14.0812 3.27832H18.3024" stroke="#F7F8FF" stroke-width="1.89583" stroke-miterlimit="10" stroke-linecap="round" stroke-linejoin="round"/>
<path d="M30.2682 18.5233H29.6053V17.686C29.6053 16.0464 28.2099 14.7207 26.4656 14.7207C24.7213 14.7207 23.3259 16.0464 23.3259 17.686V18.5233H22.663C22.5584 18.5233 22.4537 18.6279 22.4537 18.7326V24.0003C22.4537 24.4538 22.8375 24.8376 23.3259 24.8376H29.5704C30.0588 24.8376 30.4426 24.4538 30.4426 24.0003V18.7675C30.4775 18.6279 30.3728 18.5233 30.2682 18.5233ZM27.0935 22.884C27.0935 22.9537 27.0587 22.9886 27.0238 23.0584C26.9889 23.0933 26.9191 23.1282 26.8842 23.1282H26.0121C25.9423 23.1282 25.9074 23.0933 25.8725 23.0584C25.8377 22.9886 25.8028 22.9537 25.8028 22.884L25.9423 21.7676C25.6981 21.6281 25.5935 21.3839 25.5935 21.1397C25.5935 20.6862 25.9772 20.3373 26.4656 20.3373C26.954 20.3373 27.3377 20.6862 27.3377 21.1397C27.3377 21.4188 27.1982 21.6281 26.9889 21.7676L27.0935 22.884ZM28.3843 18.5581H24.5469V17.7558C24.5469 16.8487 25.419 16.1161 26.4656 16.1161C27.5122 16.1161 28.3843 16.8487 28.3843 17.7558V18.5581Z" fill="#E63976"/>
</svg>
