<svg width="38" height="37" viewBox="0 0 38 37" fill="none" xmlns="http://www.w3.org/2000/svg">
<g clip-path="url(#clip0_376_4979)">
<path d="M18.8784 24.5809C22.3397 24.5809 25.1457 21.775 25.1457 18.3137C25.1457 14.8523 22.3397 12.0464 18.8784 12.0464C15.4171 12.0464 12.6111 14.8523 12.6111 18.3137C12.6111 21.775 15.4171 24.5809 18.8784 24.5809Z" stroke="#F7F8FF" stroke-width="1.89583" stroke-miterlimit="10"/>
<path d="M10.0207 35.6531C12.4436 35.6531 14.4077 33.6889 14.4077 31.266C14.4077 28.8431 12.4436 26.8789 10.0207 26.8789C7.59773 26.8789 5.63356 28.8431 5.63356 31.266C5.63356 33.6889 7.59773 35.6531 10.0207 35.6531Z" stroke="#F7F8FF" stroke-width="1.89583" stroke-miterlimit="10"/>
<path d="M30.2848 10.7512C32.7077 10.7512 34.6719 8.78706 34.6719 6.36414C34.6719 3.94122 32.7077 1.97705 30.2848 1.97705C27.8619 1.97705 25.8977 3.94122 25.8977 6.36414C25.8977 8.78706 27.8619 10.7512 30.2848 10.7512Z" fill="#E63976"/>
<path d="M30.2848 7.3248C30.8156 7.3248 31.2458 6.89455 31.2458 6.36381C31.2458 5.83308 30.8156 5.40283 30.2848 5.40283C29.7541 5.40283 29.3239 5.83308 29.3239 6.36381C29.3239 6.89455 29.7541 7.3248 30.2848 7.3248Z" fill="white"/>
<path d="M33.0425 30.2629C34.7962 30.2629 36.2179 28.8413 36.2179 27.0875C36.2179 25.3338 34.7962 23.9121 33.0425 23.9121C31.2887 23.9121 29.867 25.3338 29.867 27.0875C29.867 28.8413 31.2887 30.2629 33.0425 30.2629Z" stroke="#F7F8FF" stroke-width="1.89583" stroke-miterlimit="10"/>
<path d="M4.83971 7.32496C6.59344 7.32496 8.01513 5.90327 8.01513 4.14954C8.01513 2.3958 6.59344 0.974121 4.83971 0.974121C3.08597 0.974121 1.66429 2.3958 1.66429 4.14954C1.66429 5.90327 3.08597 7.32496 4.83971 7.32496Z" stroke="#F7F8FF" stroke-width="1.89583" stroke-miterlimit="10"/>
<path d="M7.05415 6.44727L14.1988 13.592" stroke="#F7F8FF" stroke-width="1.89583" stroke-miterlimit="10"/>
<path d="M23.5162 13.5505L26.6916 10.2915" stroke="#F7F8FF" stroke-width="1.89583" stroke-miterlimit="10"/>
<path d="M24.3936 21.9902L30.0341 25.4581" stroke="#F7F8FF" stroke-width="1.89583" stroke-miterlimit="10"/>
<path d="M15.1598 23.5781L12.6111 27.4638" stroke="#F7F8FF" stroke-width="1.89583" stroke-miterlimit="10"/>
</g>
<defs>
<clipPath id="clip0_376_4979">
<rect width="36.3084" height="35.9324" fill="white" transform="translate(0.745087 0.347168)"/>
</clipPath>
</defs>
</svg>
