<svg width="14" height="14" viewBox="0 0 14 14" fill="none" xmlns="http://www.w3.org/2000/svg">
<path d="M4.45133 11.0904C3.7562 11.0904 3.19377 11.6591 3.19377 12.3542C3.19377 13.0494 3.7562 13.6181 4.45133 13.6181C5.14647 13.6181 5.71522 13.0494 5.71522 12.3542C5.71522 11.6591 5.14647 11.0904 4.45133 11.0904ZM0.659668 0.979248V2.24314H1.92356L4.19856 7.0396L3.34543 8.58786C3.24432 8.7648 3.18745 8.97334 3.18745 9.19453C3.18745 9.88966 3.7562 10.4584 4.45133 10.4584H12.0347V9.19453H4.71675C4.62828 9.19453 4.55877 9.12501 4.55877 9.03654L4.57772 8.96071L5.14647 7.93064H9.85446C10.3284 7.93064 10.7455 7.67154 10.9604 7.27973L13.2227 3.17841C13.2733 3.08994 13.2986 2.98251 13.2986 2.87508C13.2986 2.52751 13.0142 2.24314 12.6666 2.24314H3.32015L2.72613 0.979248H0.659668ZM10.7708 11.0904C10.0756 11.0904 9.51321 11.6591 9.51321 12.3542C9.51321 13.0494 10.0756 13.6181 10.7708 13.6181C11.4659 13.6181 12.0347 13.0494 12.0347 12.3542C12.0347 11.6591 11.4659 11.0904 10.7708 11.0904Z" fill="#F7F8FF"/>
</svg>
