<svg width="15" height="15" viewBox="0 0 15 15" fill="none" xmlns="http://www.w3.org/2000/svg">
<path d="M13.0035 0.87207H2.07987C1.68481 0.87207 1.30593 1.02187 1.02658 1.28853C0.747224 1.55518 0.590286 1.91684 0.590286 2.29395L0.590286 12.721C0.590286 13.0981 0.747224 13.4598 1.02658 13.7264C1.30593 13.9931 1.68481 14.1429 2.07987 14.1429H6.33915V9.63112H4.38407V7.50749H6.33915V5.88892C6.33915 4.04789 7.48737 3.03095 9.24601 3.03095C10.0882 3.03095 10.969 3.17432 10.969 3.17432V4.98129H9.99856C9.04243 4.98129 8.7442 5.54767 8.7442 6.12856V7.50749H10.8787L10.5373 9.63112H8.7442V14.1429H13.0035C13.3985 14.1429 13.7774 13.9931 14.0568 13.7264C14.3361 13.4598 14.4931 13.0981 14.4931 12.721V2.29395C14.4931 1.91684 14.3361 1.55518 14.0568 1.28853C13.7774 1.02187 13.3985 0.87207 13.0035 0.87207V0.87207Z" fill="#21212C"/>
</svg>
