<svg width="15" height="17" viewBox="0 0 15 17" fill="none" xmlns="http://www.w3.org/2000/svg">
<g clip-path="url(#clip0_466_687)">
<path d="M7.50308 5.10072C5.52938 5.10072 3.93739 6.62035 3.93739 8.50433C3.93739 10.3883 5.52938 11.9079 7.50308 11.9079C9.47677 11.9079 11.0688 10.3883 11.0688 8.50433C11.0688 6.62035 9.47677 5.10072 7.50308 5.10072ZM7.50308 10.7171C6.22762 10.7171 5.18491 9.72478 5.18491 8.50433C5.18491 7.28389 6.22452 6.29154 7.50308 6.29154C8.78164 6.29154 9.82124 7.28389 9.82124 8.50433C9.82124 9.72478 8.77853 10.7171 7.50308 10.7171V10.7171ZM12.0463 4.9615C12.0463 5.40287 11.6739 5.75538 11.2146 5.75538C10.7522 5.75538 10.3829 5.39991 10.3829 4.9615C10.3829 4.52309 10.7553 4.16762 11.2146 4.16762C11.6739 4.16762 12.0463 4.52309 12.0463 4.9615ZM14.4079 5.76723C14.3552 4.70378 14.1007 3.76179 13.2845 2.98568C12.4715 2.20958 11.4846 1.96667 10.3705 1.91335C9.2223 1.85115 5.78075 1.85115 4.63253 1.91335C3.52154 1.96371 2.5347 2.20662 1.71853 2.98272C0.902361 3.75883 0.650993 4.70082 0.595134 5.76426C0.529965 6.86029 0.529965 10.1454 0.595134 11.2414C0.64789 12.3049 0.902361 13.2469 1.71853 14.023C2.5347 14.7991 3.51844 15.042 4.63253 15.0953C5.78075 15.1575 9.2223 15.1575 10.3705 15.0953C11.4846 15.045 12.4715 14.8021 13.2845 14.023C14.0976 13.2469 14.3521 12.3049 14.4079 11.2414C14.4731 10.1454 14.4731 6.86325 14.4079 5.76723V5.76723ZM12.9245 12.4174C12.6825 12.998 12.2139 13.4453 11.6025 13.6794C10.6871 14.0259 8.51475 13.946 7.50308 13.946C6.4914 13.946 4.31599 14.023 3.40362 13.6794C2.79537 13.4483 2.32677 13.001 2.08161 12.4174C1.71853 11.5436 1.80232 9.47002 1.80232 8.50433C1.80232 7.53864 1.72163 5.46212 2.08161 4.59122C2.32367 4.01062 2.79227 3.56332 3.40362 3.3293C4.31909 2.98272 6.4914 3.0627 7.50308 3.0627C8.51475 3.0627 10.6902 2.98568 11.6025 3.3293C12.2108 3.56036 12.6794 4.00766 12.9245 4.59122C13.2876 5.46508 13.2038 7.53864 13.2038 8.50433C13.2038 9.47002 13.2876 11.5466 12.9245 12.4174Z" fill="#21212C"/>
</g>
<defs>
<clipPath id="clip0_466_687">
<rect width="13.9028" height="15.1667" fill="white" transform="translate(0.548615 0.923828)"/>
</clipPath>
</defs>
</svg>
