<svg width="12" height="12" viewBox="0 0 12 12" fill="none" xmlns="http://www.w3.org/2000/svg">
<path d="M2.7182 5.25585C3.6282 7.04426 5.09431 8.50405 6.88271 9.42037L8.27299 8.03009C8.44361 7.85947 8.69639 7.80259 8.91757 7.87842C9.62535 8.11224 10.39 8.23863 11.1736 8.23863C11.5212 8.23863 11.8056 8.52301 11.8056 8.87058V11.0761C11.8056 11.4236 11.5212 11.708 11.1736 11.708C5.23965 11.708 0.430557 6.89891 0.430557 0.964952C0.430557 0.617383 0.714932 0.333008 1.0625 0.333008H3.27431C3.62188 0.333008 3.90625 0.617383 3.90625 0.964952C3.90625 1.75488 4.03264 2.51322 4.26646 3.22099C4.33597 3.44217 4.28542 3.68863 4.10847 3.86558L2.7182 5.25585Z" fill="black"/>
</svg>
